<svg xmlns="http://www.w3.org/2000/svg" viewBox="0 0 960 120" role="img" aria-label="Station accessories">
  <rect width="960" height="120" fill="#0a0618" rx="8"/>
  <rect x="1" y="1" width="958" height="118" fill="none" stroke="#334155" stroke-opacity="0.5" rx="8"/>
  <text x="24" y="28" fill="#64748b" font-family="Consolas,monospace" font-size="10" letter-spacing="2">STATION MANIFEST</text>
  <!-- icons row -->
  <g font-family="Consolas,monospace" font-size="9" fill="#94a3b8">
    <g transform="translate(24,48)">
      <circle cx="8" cy="8" r="7" fill="#1e293b" stroke="#38bdf8" stroke-width="1"/>
      <text x="22" y="12">Relay satellites ×3</text>
    </g>
    <g transform="translate(200,48)">
      <rect x="2" y="4" width="12" height="8" fill="#475569"/><circle cx="8" cy="2" r="3" fill="#f59e0b"/>
      <text x="22" y="12">Comms buoys ×4</text>
    </g>
    <g transform="translate(376,48)">
      <rect x="0" y="6" width="16" height="6" fill="#0f172a" stroke="#64748b"/><line x1="4" y1="6" x2="4" y2="12" stroke="#334155"/>
      <text x="22" y="12">Solar wings</text>
    </g>
    <g transform="translate(520,48)">
      <path d="M4 14 Q8 4 12 14" fill="none" stroke="#94a3b8"/><line x1="8" y1="14" x2="8" y2="18" stroke="#64748b"/>
      <text x="22" y="12">Dishes · drones</text>
    </g>
    <g transform="translate(680,48)">
      <circle cx="8" cy="10" r="2" fill="#38bdf8"/><circle cx="14" cy="8" r="1.5" fill="#a78bfa"/><circle cx="5" cy="6" r="1" fill="#fbbf24"/>
      <text x="22" y="12">Ice · dust · logs</text>
    </g>
  </g>
  <g transform="translate(24,78)">
    <rect x="0" y="0" width="912" height="28" rx="4" fill="#111827" stroke="#1e293b"/>
    <text x="12" y="18" fill="#34d399" font-family="Consolas,monospace" font-size="10">PORTAL STABLE</text>
    <text x="140" y="18" fill="#64748b" font-family="Consolas,monospace" font-size="10">TETHERS ACTIVE</text>
    <text x="280" y="18" fill="#64748b" font-family="Consolas,monospace" font-size="10">58 PROPS RENDERED</text>
    <text x="460" y="18" fill="#64748b" font-family="Consolas,monospace" font-size="10">RECENTER ◎ = HOME</text>
    <text x="640" y="18" fill="#f472b6" font-family="Consolas,monospace" font-size="10">DOUBLE-CLICK WORMHOLE → PORTAL ZOOM</text>
  </g>
</svg>
